<svg width="1680" height="450" viewBox="0 0 1680 450" fill="none" xmlns="http://www.w3.org/2000/svg">
<path fill-rule="evenodd" clip-rule="evenodd" d="M4504 0H-273V450H4504V0ZM1494.39 214V176H1499.64C1516.14 176 1520.39 158.5 1520.89 120.25L1522.14 41.5H1650.39V214H1610.64V79H1560.14L1559.39 120.75C1558.39 180.5 1551.89 214 1501.14 214H1494.39ZM1710.92 165.75V214H1672.92V85.25H1710.92V132H1725.67C1732.42 103.25 1755.67 82.75 1790.92 82.75C1832.67 82.75 1857.92 112 1857.92 149.5C1857.92 187 1832.67 216.5 1790.92 216.5C1755.17 216.5 1731.67 195.25 1725.42 165.75H1710.92ZM1790.92 117.5C1772.17 117.5 1761.42 131.5 1761.42 149.5C1761.42 167.75 1772.17 181.75 1790.92 181.75C1809.42 181.75 1820.17 167.75 1820.17 149.5C1820.17 131.5 1809.42 117.5 1790.92 117.5ZM1941.25 216.5C1898.75 216.5 1872.5 190 1872.5 147.75V132.75C1872.5 74.75 1888.75 44.5 1946.25 42.25C1948.94 42.1467 1951.63 42.0482 1954.33 41.9498C1971.2 41.3339 1987.89 40.7246 1999.75 39V71C1986.25 73 1965.5 73.75 1946.75 74.25C1919.5 75.75 1909.25 85.75 1907.25 108.25H1916.75C1923.25 98.25 1935 90.75 1952.75 90.75C1988.5 90.75 2010 118.25 2010 153.75C2010 189 1983.5 216.5 1941.25 216.5ZM1941.25 123.75C1922.25 123.75 1910.25 136.25 1910.25 153.75C1910.25 171 1922.25 183.75 1941.25 183.75C1960.25 183.75 1972.25 171 1972.25 153.75C1972.25 136.25 1960.25 123.75 1941.25 123.75ZM2063.99 214H2057.74L2010.99 85.25H2053.49L2081.24 167.75H2083.49L2110.49 85.25H2150.49L2090.24 251.5H2050.24L2063.99 214ZM2237.99 173.75C2234.99 174.25 2221.74 175.25 2218.74 175.25C2174.99 175.25 2160.24 157 2160.24 119.25V85.25H2198.24V118.5C2198.24 136.25 2204.74 140.5 2220.74 140.5C2227.74 140.5 2234.99 139.75 2237.99 139V85.25H2275.74V214H2237.99V173.75ZM2333.22 216.5C2306.22 216.5 2292.22 198.5 2292.22 175.75C2292.22 149.75 2308.97 134.5 2344.72 134.5H2375.47V134C2375.47 119.75 2366.47 113.75 2352.97 113.75C2339.47 113.75 2332.72 120.25 2330.47 129H2293.97C2296.47 102.25 2314.97 82.75 2353.72 82.75C2392.72 82.75 2413.47 102.5 2413.47 134.75V214H2375.47V202.75H2366.22C2360.22 209.75 2351.22 216.5 2333.22 216.5ZM2349.47 159C2337.22 159 2329.97 163.5 2329.97 172C2329.97 180.75 2337.22 185.25 2349.72 185.25C2358.97 185.25 2367.47 183.5 2375.47 178.5V159H2349.47ZM2470.64 214H2432.64V85.25H2470.64V132H2515.64V85.25H2553.39V214H2515.64V166.5H2470.64V214ZM2630.94 214H2573.94V85.25H2611.94V124.5H2630.94C2667.94 124.5 2684.94 143.5 2684.94 169C2684.94 194.75 2667.94 214 2630.94 214ZM2731.44 214H2693.44V85.25H2731.44V214ZM2628.94 152.75H2611.94V185.75H2628.94C2640.94 185.75 2647.94 180.25 2647.94 169C2647.94 158.25 2640.94 152.75 2628.94 152.75Z" fill="#092847"/>
</svg>
