<svg width="1680" height="450" viewBox="0 0 1680 450" fill="none" xmlns="http://www.w3.org/2000/svg">
<path fill-rule="evenodd" clip-rule="evenodd" d="M1921 0H-2856V450H1921V0ZM-1050.92 429.5C-1106.17 429.5 -1140.92 390 -1140.92 340.75C-1140.92 291 -1106.17 252 -1050.92 252C-995.675 252 -961.175 291 -961.175 340.75C-961.175 390 -995.675 429.5 -1050.92 429.5ZM-1050.92 289.75C-1081.67 289.75 -1101.17 312 -1101.17 340.75C-1101.17 369.25 -1081.67 391.5 -1050.92 391.5C-1020.42 391.5 -1000.67 369.25 -1000.67 340.75C-1000.67 312 -1020.42 289.75 -1050.92 289.75ZM-813.089 375.75C-818.339 407 -842.089 429.5 -879.839 429.5C-922.589 429.5 -949.089 400.25 -949.089 362.5C-949.089 325.25 -922.589 295.75 -879.839 295.75C-842.589 295.75 -817.589 318.5 -813.089 349.75H-850.839C-855.339 337.75 -865.339 330.5 -879.839 330.5C-899.339 330.5 -911.089 344.5 -911.089 362.5C-911.089 380.75 -899.339 394.75 -879.839 394.75C-865.089 394.75 -855.089 387.25 -850.839 375.75H-813.089ZM-665.937 384.25C-673.437 410.5 -696.687 429.5 -732.687 429.5C-774.187 429.5 -801.687 400 -801.687 362.5C-801.687 325 -774.187 295.75 -732.687 295.75C-689.687 295.75 -664.187 325.25 -664.187 361.25C-664.187 365.25 -664.437 368.75 -664.687 371.25H-765.187C-762.937 388.5 -751.437 398.5 -732.687 398.5C-718.437 398.5 -708.187 393.5 -703.937 384.25H-665.937ZM-732.687 326.75C-748.687 326.75 -759.687 335 -763.687 347H-702.437C-706.437 335.25 -716.437 326.75 -732.687 326.75ZM-610.081 427H-648.081V298.25H-610.081V345H-565.081V298.25H-527.331V427H-565.081V379.5H-610.081V427ZM-449.782 427H-506.782V298.25H-468.782V337.5H-449.782C-412.782 337.5 -395.782 356.5 -395.782 382C-395.782 407.75 -412.782 427 -449.782 427ZM-432.782 382C-432.782 371.25 -439.782 365.75 -451.782 365.75H-468.782V398.75H-451.782C-439.782 398.75 -432.782 393.25 -432.782 382ZM-332.165 311V307.25C-332.165 271.5 -307.665 252 -270.915 252C-234.165 252 -209.665 271.5 -209.665 306C-209.665 327.25 -222.165 344 -246.165 364.75L-273.665 389.5H-208.165V427H-330.415V393.5L-275.915 345C-259.665 330.25 -251.165 320.75 -251.165 307.25C-251.165 295.25 -258.915 287.5 -272.165 287.5C-285.165 287.5 -293.415 295.5 -293.415 307.25V311H-332.165ZM-51.7959 359.75C-51.7959 399.75 -76.2959 429.5 -121.296 429.5C-166.546 429.5 -190.796 399.75 -190.796 359.75V321.75C-190.796 282 -166.046 252 -121.296 252C-76.2959 252 -51.7959 282 -51.7959 321.75V359.75ZM-91.2959 321.75C-91.2959 301.25 -100.796 287.5 -121.296 287.5C-141.546 287.5 -151.046 301.25 -151.046 321.75V359.75C-151.046 380 -141.546 393.75 -121.296 393.75C-101.296 393.75 -91.2959 380 -91.2959 359.75V321.75ZM108.058 359.75C108.058 399.75 83.5576 429.5 38.5576 429.5C-6.69238 429.5 -30.9424 399.75 -30.9424 359.75V321.75C-30.9424 282 -6.19238 252 38.5576 252C83.5576 252 108.058 282 108.058 321.75V359.75ZM68.5576 321.75C68.5576 301.25 59.0576 287.5 38.5576 287.5C18.3076 287.5 8.80762 301.25 8.80762 321.75V359.75C8.80762 380 18.3076 393.75 38.5576 393.75C58.5576 393.75 68.5576 380 68.5576 359.75V321.75ZM158.161 427V294.75L126.161 307.25V270.75L163.411 254.5H197.911V427H158.161Z" fill="#092847"/>
</svg>
