<svg width="1680" height="900" viewBox="0 0 1680 900" fill="none" xmlns="http://www.w3.org/2000/svg">
<path fill-rule="evenodd" clip-rule="evenodd" d="M0 0H1680V477.5H1642.86L1641.61 556.25C1641.11 594.5 1636.86 612 1620.36 612H1615.11V650H1621.86C1671.04 650 1678.67 618.535 1680 562.204V900H0V0ZM636.5 650H676.25V601.5H696.75C743.5 601.5 768.5 577.25 768.5 539C768.5 501 743.5 477.5 696.75 477.5H636.5V650ZM675.25 566.75V512.25H696.5C718 512.25 729.25 522.5 729.25 539C729.25 555.5 718 566.75 696.5 566.75H675.25ZM778.141 585.5C778.141 623 804.641 652.5 847.891 652.5C890.891 652.5 917.391 623 917.391 585.5C917.391 548 890.891 518.75 847.891 518.75C804.641 518.75 778.141 548 778.141 585.5ZM815.891 585.5C815.891 567.5 828.641 553.5 847.891 553.5C866.891 553.5 879.641 567.5 879.641 585.5C879.641 603.75 866.891 617.75 847.891 617.75C828.641 617.75 815.891 603.75 815.891 585.5ZM998.699 652.5C1036.45 652.5 1060.2 630 1065.45 598.75H1027.7C1023.45 610.25 1013.45 617.75 998.699 617.75C979.199 617.75 967.449 603.75 967.449 585.5C967.449 567.5 979.199 553.5 998.699 553.5C1013.2 553.5 1023.2 560.75 1027.7 572.75H1065.45C1060.95 541.5 1035.95 518.75 998.699 518.75C955.949 518.75 929.449 548.25 929.449 585.5C929.449 623.25 955.949 652.5 998.699 652.5ZM1146.1 652.5C1183.85 652.5 1207.6 630 1212.85 598.75H1175.1C1170.85 610.25 1160.85 617.75 1146.1 617.75C1126.6 617.75 1114.85 603.75 1114.85 585.5C1114.85 567.5 1126.6 553.5 1146.1 553.5C1160.6 553.5 1170.6 560.75 1175.1 572.75H1212.85C1208.35 541.5 1183.35 518.75 1146.1 518.75C1103.35 518.75 1076.85 548.25 1076.85 585.5C1076.85 623.25 1103.35 652.5 1146.1 652.5ZM1266.5 650L1314 578V650H1351.75V521.5H1314L1266.5 593.5V521.5H1228.5V650H1266.5ZM1406.74 650L1426.49 607H1444.99V650H1482.74V521.25H1423.49C1387.24 521.25 1371.49 540.5 1371.49 565C1371.49 582 1378.49 592.25 1390.99 598.75L1367.74 650H1406.74ZM1427.49 549.25H1444.99V580.5H1427.49C1416.24 580.5 1409.49 575.25 1409.49 565C1409.49 554.5 1416.49 549.25 1427.49 549.25ZM1503.03 632.25C1503.03 641 1508.78 649 1518.03 651.75C1514.78 660.75 1508.53 675.5 1507.78 677.25H1531.53C1538.28 663 1545.78 644.25 1545.78 632.25C1545.78 621.5 1537.28 611.75 1524.28 611.75C1511.53 611.75 1503.03 621.5 1503.03 632.25ZM142.238 373.25C134.738 399.5 111.488 418.5 75.4883 418.5C33.9883 418.5 6.48828 389 6.48828 351.5C6.48828 314 33.9883 284.75 75.4883 284.75C118.488 284.75 143.988 314.25 143.988 350.25C143.988 354.25 143.738 357.75 143.488 360.25H42.9883C45.2383 377.5 56.7383 387.5 75.4883 387.5C89.7383 387.5 99.9883 382.5 104.238 373.25H142.238ZM75.4883 315.75C59.4883 315.75 48.4883 324 44.4883 336H105.738C101.738 324.25 91.7383 315.75 75.4883 315.75ZM198.094 416H160.094V287.25H198.094V334H243.094V287.25H280.844V416H243.094V368.5H198.094V416ZM358.393 416H301.393V287.25H339.393V326.5H358.393C395.393 326.5 412.393 345.5 412.393 371C412.393 396.75 395.393 416 358.393 416ZM375.393 371C375.393 360.25 368.393 354.75 356.393 354.75H339.393V387.75H356.393C368.393 387.75 375.393 382.25 375.393 371ZM476.01 300V296.25C476.01 260.5 500.51 241 537.26 241C574.01 241 598.51 260.5 598.51 295C598.51 316.25 586.01 333 562.01 353.75L534.51 378.5H600.01V416H477.76V382.5L532.26 334C548.51 319.25 557.01 309.75 557.01 296.25C557.01 284.25 549.26 276.5 536.01 276.5C523.01 276.5 514.76 284.5 514.76 296.25V300H476.01ZM756.379 348.75C756.379 388.75 731.879 418.5 686.879 418.5C641.629 418.5 617.379 388.75 617.379 348.75V310.75C617.379 271 642.129 241 686.879 241C731.879 241 756.379 271 756.379 310.75V348.75ZM716.879 310.75C716.879 290.25 707.379 276.5 686.879 276.5C666.629 276.5 657.129 290.25 657.129 310.75V348.75C657.129 369 666.629 382.75 686.879 382.75C706.879 382.75 716.879 369 716.879 348.75V310.75ZM916.232 348.75C916.232 388.75 891.732 418.5 846.732 418.5C801.482 418.5 777.232 388.75 777.232 348.75V310.75C777.232 271 801.982 241 846.732 241C891.732 241 916.232 271 916.232 310.75V348.75ZM876.732 310.75C876.732 290.25 867.232 276.5 846.732 276.5C826.482 276.5 816.982 290.25 816.982 310.75V348.75C816.982 369 826.482 382.75 846.732 382.75C866.732 382.75 876.732 369 876.732 348.75V310.75ZM966.336 416V283.75L934.336 296.25V259.75L971.586 243.5H1006.09V416H966.336Z" fill="#092847"/>
</svg>
