<svg width="157" height="32" viewBox="0 0 157 32" fill="none" xmlns="http://www.w3.org/2000/svg">
<path d="M16.1507 23.8853L8.01276 23.8853V18.168L16.1507 18.168C18.2791 18.168 19.4059 19.3115 19.4059 20.9631C19.4059 22.6148 18.2791 23.8853 16.1507 23.8853ZM8.01276 7.11476L15.2743 7.11476C17.1523 7.11476 18.2791 7.87706 18.2791 9.78279C18.2791 11.3074 17.1523 12.3238 15.2743 12.3238H8.01276V7.11476ZM22.2855 14.8648C24.9147 13.9754 26.5423 11.5615 26.5423 8.63935C26.5423 3.81148 22.9115 0.635254 16.4011 0.635254L0 0.635254L0 30.2377L16.6515 30.2377C23.6627 30.2377 27.9195 26.8074 27.9195 21.4713C27.7943 18.4221 25.6659 15.7541 22.2855 14.8648Z" fill="#212121"/>
<path d="M38.8139 0.76123L30.5508 0.76123L30.5508 30.3637H38.8139L38.8139 0.76123Z" fill="#212121"/>
<path d="M108.796 19.0563L109.548 16.5153C110.424 13.5932 111.175 11.1793 111.801 8.89238H112.052C112.552 11.3063 113.304 13.5932 114.18 16.5153L114.931 19.0563H108.796ZM107.044 0.76123L96.7773 30.3637H105.416L106.668 26.1711L117.31 26.1711L118.562 30.3637H127.702L117.56 0.76123L107.044 0.76123Z" fill="#212121"/>
<path d="M141.226 22.7407L137.595 22.7407V8.25713L141.226 8.25713C145.733 8.25713 148.112 11.5604 148.112 15.4989C148.112 19.4375 145.733 22.7407 141.226 22.7407ZM141.351 0.76123L129.332 0.76123V30.3637L141.351 30.3637C150.992 30.3637 157.001 23.6301 157.001 15.626C157.001 7.36779 150.992 0.76123 141.351 0.76123Z" fill="#212121"/>
<path d="M77.8742 11.0533C79.3766 9.14754 81.7554 8.0041 84.009 8.0041C86.6382 8.0041 88.6414 9.02049 91.1453 11.3074L91.6461 11.8156L96.0281 5.59016L95.7777 5.33607C92.7729 1.90574 88.5162 0 84.009 0C78.8758 0 73.993 3.04918 71.7394 5.84426C69.9867 7.87705 68.7347 10.418 67.3575 13.0861C65.1039 17.6598 63.2259 20.8361 60.5967 22.2336C59.5951 22.7418 58.5935 22.9959 57.3415 22.9959C55.3383 22.9959 53.3351 22.2336 51.958 20.8361C50.4556 19.4385 49.7044 17.5328 49.7044 15.5C49.7044 11.3074 53.0847 7.87705 57.3415 7.87705C60.2211 7.87705 62.5999 9.02049 64.3527 11.3074L64.4779 11.4344L68.4843 4.44672C65.4795 1.65164 61.4731 0 57.3415 0C48.7028 0 41.5664 6.98771 41.5664 15.5C41.5664 24.0123 48.5776 31 57.3415 31C67.2323 31 71.489 22.7418 74.619 16.6434C75.7458 14.3566 76.7474 12.4508 77.8742 11.0533Z" fill="#212121"/>
<path d="M91.8938 18.6768C90.2662 21.3448 87.2614 23.1235 84.0062 23.1235C84.0062 23.1235 84.0062 23.1235 83.881 23.1235C83.881 23.1235 83.881 23.1235 83.7558 23.1235C82.2534 23.1235 80.8762 22.7423 79.6242 22.1071C78.4975 21.4718 77.4959 20.7095 76.6195 19.6932L72.7383 26.5538C75.6179 29.4759 79.4991 31.1276 83.7558 31.1276C88.3882 31.1276 92.7702 29.0948 95.775 25.5374L96.9018 24.2669L91.8938 18.6768Z" fill="#212121"/>
</svg>
