<svg width="127" height="27" viewBox="0 0 127 27" fill="none" xmlns="http://www.w3.org/2000/svg">
<path d="M13.0645 20.295L6.48161 20.295V15.6703H13.0645C14.7862 15.6703 15.6977 16.5952 15.6977 17.9312C15.6977 19.2673 14.7862 20.295 13.0645 20.295ZM6.48161 6.72914L12.3556 6.72914C13.8747 6.72914 14.7862 7.34577 14.7862 8.88734C14.7862 10.1206 13.8747 10.9428 12.3556 10.9428H6.48161L6.48161 6.72914ZM18.027 12.9982C20.1538 12.2788 21.4703 10.3261 21.4703 7.9624C21.4703 4.05708 18.5334 1.48779 13.2671 1.48779L0 1.48779L0 25.4336L13.4696 25.4336C19.141 25.4336 22.5844 22.6587 22.5844 18.3423C22.4831 15.8758 20.7614 13.7176 18.027 12.9982Z" fill="white"/>
<path d="M31.3971 1.58984L24.7129 1.58984L24.7129 25.5356H31.3971L31.3971 1.58984Z" fill="white"/>
<path d="M88.0068 16.3889L88.6145 14.3335C89.3234 11.9698 89.9311 10.0171 90.4375 8.16722H90.64C91.0451 10.1199 91.6527 11.9698 92.3617 14.3335L92.9693 16.3889H88.0068ZM86.589 1.58984L78.2844 25.5356H85.2724L86.2852 22.1442L94.8936 22.1442L95.9063 25.5356H103.299L95.0961 1.58984L86.589 1.58984Z" fill="white"/>
<path d="M114.239 19.3693H111.302V7.65337L114.239 7.65337C117.885 7.65337 119.809 10.3254 119.809 13.5113C119.809 16.6973 117.885 19.3693 114.239 19.3693ZM114.341 1.58984L104.618 1.58984V25.5356H114.341C122.139 25.5356 127 20.0887 127 13.6141C127 6.93396 122.139 1.58984 114.341 1.58984Z" fill="white"/>
<path d="M62.9933 9.91525C64.2086 8.37367 66.1329 7.44873 67.9558 7.44873C70.0826 7.44873 71.703 8.2709 73.7285 10.1208L74.1336 10.5319L77.6782 5.49607L77.4757 5.29053C75.0451 2.51569 71.6017 0.974121 67.9558 0.974121C63.8035 0.974121 59.8538 3.44064 58.0309 5.70161C56.613 7.34596 55.6003 9.40139 54.4862 11.5596C52.6633 15.2594 51.1441 17.8287 49.0174 18.9591C48.2072 19.3702 47.397 19.5758 46.3842 19.5758C44.7638 19.5758 43.1434 18.9591 42.0294 17.8287C40.8141 16.6982 40.2064 15.1566 40.2064 13.5123C40.2064 10.1208 42.9409 7.34596 46.3842 7.34596C48.7135 7.34596 50.6378 8.2709 52.0556 10.1208L52.1569 10.2236L55.3977 4.57113C52.9671 2.31015 49.7263 0.974121 46.3842 0.974121C39.3962 0.974121 33.6235 6.62656 33.6235 13.5123C33.6235 20.3979 39.2949 26.0504 46.3842 26.0504C54.3849 26.0504 57.8283 19.3702 60.3602 14.4372C61.2717 12.5873 62.0819 11.0457 62.9933 9.91525Z" fill="white"/>
<path d="M74.334 16.082C73.0174 18.2402 70.5868 19.679 67.9536 19.679C67.9536 19.679 67.9536 19.679 67.8524 19.679C67.8524 19.679 67.8524 19.679 67.7511 19.679C66.5358 19.679 65.4218 19.3707 64.409 18.8569C63.4975 18.343 62.6873 17.7264 61.9784 16.9042L58.8389 22.4539C61.1682 24.8176 64.3077 26.1536 67.7511 26.1536C71.4983 26.1536 75.0429 24.5093 77.4735 21.6317L78.385 20.604L74.334 16.082Z" fill="white"/>
</svg>
