<svg width="34" height="34" viewBox="0 0 34 34" fill="none" xmlns="http://www.w3.org/2000/svg">
<path d="M4.28148 29.7185L22.1 34L34 22.1L29.7185 4.28148L11.9 0L0 11.9L4.28148 29.7185ZM7.11481 22.2889C7.80741 20.6518 9.6963 19.7704 11.4593 20.1481L19.5815 22.2259C22.037 22.8556 22.9185 24.6815 22.4148 26.6333C21.9741 28.3963 20.0222 29.5296 17.9444 29.0259L9.6963 27.0111C7.49259 26.4444 6.42222 24.0518 7.11481 22.2889ZM5.66667 11.963L11.5852 6.10741C12.4667 5.28889 13.4741 4.91111 14.3556 4.91111C15.3 4.91111 16.1185 5.28889 16.8111 5.98148C18.1333 7.24074 18.1333 9.50741 16.6222 11.0185L10.5778 17C9.82222 17.6926 8.87778 18.0704 7.9963 18.0704C6.86296 18.0704 5.85556 17.5667 5.22593 16.7481C4.15556 15.3 4.34444 13.2852 5.66667 11.963ZM22.9185 7.17778C24.6815 7.05185 26.3185 8.18519 26.7593 10.0111L28.837 18.0704C29.4667 20.5259 28.2074 22.2259 26.3185 22.6667C24.5556 23.1074 22.6667 22.037 22.1 19.9593L19.9593 11.7111C19.3926 9.50741 20.9667 7.42963 22.9185 7.17778Z" fill="#9DDCC5"/>
</svg>
