<svg width="4777" height="450" viewBox="0 0 4777 450" fill="none" xmlns="http://www.w3.org/2000/svg">
<path fill-rule="evenodd" clip-rule="evenodd" d="M4777 0H0V450H4777V0ZM1805.08 429.5C1749.83 429.5 1715.08 390 1715.08 340.75C1715.08 291 1749.83 252 1805.08 252C1860.33 252 1894.83 291 1894.83 340.75C1894.83 390 1860.33 429.5 1805.08 429.5ZM1805.08 289.75C1774.33 289.75 1754.83 312 1754.83 340.75C1754.83 369.25 1774.33 391.5 1805.08 391.5C1835.58 391.5 1855.33 369.25 1855.33 340.75C1855.33 312 1835.58 289.75 1805.08 289.75ZM2042.91 375.75C2037.66 407 2013.91 429.5 1976.16 429.5C1933.41 429.5 1906.91 400.25 1906.91 362.5C1906.91 325.25 1933.41 295.75 1976.16 295.75C2013.41 295.75 2038.41 318.5 2042.91 349.75H2005.16C2000.66 337.75 1990.66 330.5 1976.16 330.5C1956.66 330.5 1944.91 344.5 1944.91 362.5C1944.91 380.75 1956.66 394.75 1976.16 394.75C1990.91 394.75 2000.91 387.25 2005.16 375.75H2042.91ZM2190.06 384.25C2182.56 410.5 2159.31 429.5 2123.31 429.5C2081.81 429.5 2054.31 400 2054.31 362.5C2054.31 325 2081.81 295.75 2123.31 295.75C2166.31 295.75 2191.81 325.25 2191.81 361.25C2191.81 365.25 2191.56 368.75 2191.31 371.25H2090.81C2093.06 388.5 2104.56 398.5 2123.31 398.5C2137.56 398.5 2147.81 393.5 2152.06 384.25H2190.06ZM2123.31 326.75C2107.31 326.75 2096.31 335 2092.31 347H2153.56C2149.56 335.25 2139.56 326.75 2123.31 326.75ZM2245.92 427H2207.92V298.25H2245.92V345H2290.92V298.25H2328.67V427H2290.92V379.5H2245.92V427ZM2406.22 427H2349.22V298.25H2387.22V337.5H2406.22C2443.22 337.5 2460.22 356.5 2460.22 382C2460.22 407.75 2443.22 427 2406.22 427ZM2423.22 382C2423.22 371.25 2416.22 365.75 2404.22 365.75H2387.22V398.75H2404.22C2416.22 398.75 2423.22 393.25 2423.22 382ZM2523.83 311V307.25C2523.83 271.5 2548.33 252 2585.08 252C2621.83 252 2646.33 271.5 2646.33 306C2646.33 327.25 2633.83 344 2609.83 364.75L2582.33 389.5H2647.83V427H2525.58V393.5L2580.08 345C2596.33 330.25 2604.83 320.75 2604.83 307.25C2604.83 295.25 2597.08 287.5 2583.83 287.5C2570.83 287.5 2562.58 295.5 2562.58 307.25V311H2523.83ZM2804.2 359.75C2804.2 399.75 2779.7 429.5 2734.7 429.5C2689.45 429.5 2665.2 399.75 2665.2 359.75V321.75C2665.2 282 2689.95 252 2734.7 252C2779.7 252 2804.2 282 2804.2 321.75V359.75ZM2764.7 321.75C2764.7 301.25 2755.2 287.5 2734.7 287.5C2714.45 287.5 2704.95 301.25 2704.95 321.75V359.75C2704.95 380 2714.45 393.75 2734.7 393.75C2754.7 393.75 2764.7 380 2764.7 359.75V321.75ZM2964.06 359.75C2964.06 399.75 2939.56 429.5 2894.56 429.5C2849.31 429.5 2825.06 399.75 2825.06 359.75V321.75C2825.06 282 2849.81 252 2894.56 252C2939.56 252 2964.06 282 2964.06 321.75V359.75ZM2924.56 321.75C2924.56 301.25 2915.06 287.5 2894.56 287.5C2874.31 287.5 2864.81 301.25 2864.81 321.75V359.75C2864.81 380 2874.31 393.75 2894.56 393.75C2914.56 393.75 2924.56 380 2924.56 359.75V321.75ZM3014.16 427V294.75L2982.16 307.25V270.75L3019.41 254.5H3053.91V427H3014.16Z" fill="#092847"/>
</svg>
