<svg width="4777" height="450" viewBox="0 0 4777 450" fill="none" xmlns="http://www.w3.org/2000/svg">
<path fill-rule="evenodd" clip-rule="evenodd" d="M4777 0H0V450H4777V0ZM1767.39 214V176H1772.64C1789.14 176 1793.39 158.5 1793.89 120.25L1795.14 41.5H1923.39V214H1883.64V79H1833.14L1832.39 120.75C1831.39 180.5 1824.89 214 1774.14 214H1767.39ZM1983.92 165.75V214H1945.92V85.25H1983.92V132H1998.67C2005.42 103.25 2028.67 82.75 2063.92 82.75C2105.67 82.75 2130.92 112 2130.92 149.5C2130.92 187 2105.67 216.5 2063.92 216.5C2028.17 216.5 2004.67 195.25 1998.42 165.75H1983.92ZM2063.92 117.5C2045.17 117.5 2034.42 131.5 2034.42 149.5C2034.42 167.75 2045.17 181.75 2063.92 181.75C2082.42 181.75 2093.17 167.75 2093.17 149.5C2093.17 131.5 2082.42 117.5 2063.92 117.5ZM2214.25 216.5C2171.75 216.5 2145.5 190 2145.5 147.75V132.75C2145.5 74.75 2161.75 44.5 2219.25 42.25C2221.94 42.1467 2224.63 42.0482 2227.33 41.9498C2244.2 41.3339 2260.89 40.7246 2272.75 39V71C2259.25 73 2238.5 73.75 2219.75 74.25C2192.5 75.75 2182.25 85.75 2180.25 108.25H2189.75C2196.25 98.25 2208 90.75 2225.75 90.75C2261.5 90.75 2283 118.25 2283 153.75C2283 189 2256.5 216.5 2214.25 216.5ZM2214.25 123.75C2195.25 123.75 2183.25 136.25 2183.25 153.75C2183.25 171 2195.25 183.75 2214.25 183.75C2233.25 183.75 2245.25 171 2245.25 153.75C2245.25 136.25 2233.25 123.75 2214.25 123.75ZM2336.99 214H2330.74L2283.99 85.25H2326.49L2354.24 167.75H2356.49L2383.49 85.25H2423.49L2363.24 251.5H2323.24L2336.99 214ZM2510.99 173.75C2507.99 174.25 2494.74 175.25 2491.74 175.25C2447.99 175.25 2433.24 157 2433.24 119.25V85.25H2471.24V118.5C2471.24 136.25 2477.74 140.5 2493.74 140.5C2500.74 140.5 2507.99 139.75 2510.99 139V85.25H2548.74V214H2510.99V173.75ZM2606.22 216.5C2579.22 216.5 2565.22 198.5 2565.22 175.75C2565.22 149.75 2581.97 134.5 2617.72 134.5H2648.47V134C2648.47 119.75 2639.47 113.75 2625.97 113.75C2612.47 113.75 2605.72 120.25 2603.47 129H2566.97C2569.47 102.25 2587.97 82.75 2626.72 82.75C2665.72 82.75 2686.47 102.5 2686.47 134.75V214H2648.47V202.75H2639.22C2633.22 209.75 2624.22 216.5 2606.22 216.5ZM2622.47 159C2610.22 159 2602.97 163.5 2602.97 172C2602.97 180.75 2610.22 185.25 2622.72 185.25C2631.97 185.25 2640.47 183.5 2648.47 178.5V159H2622.47ZM2743.64 214H2705.64V85.25H2743.64V132H2788.64V85.25H2826.39V214H2788.64V166.5H2743.64V214ZM2903.94 214H2846.94V85.25H2884.94V124.5H2903.94C2940.94 124.5 2957.94 143.5 2957.94 169C2957.94 194.75 2940.94 214 2903.94 214ZM3004.44 214H2966.44V85.25H3004.44V214ZM2901.94 152.75H2884.94V185.75H2901.94C2913.94 185.75 2920.94 180.25 2920.94 169C2920.94 158.25 2913.94 152.75 2901.94 152.75Z" fill="#092847"/>
</svg>
